0
SECTION
2
HEADER
9
$ACADVER
1
AC1009
9
$INSUNITS
70
4
0
ENDSEC
0
SECTION
2
TABLES
0
TABLE
2
LTYPE
70
1
0
LTYPE
2
CONTINUOUS
70
64
3
Solid line
72
65
73
0
40
0.0
0
ENDTAB
0
TABLE
2
LAYER
70
6
0
LAYER
2
OUTLINE
70
0
62
7
6
CONTINUOUS
0
LAYER
2
CENTER
70
0
62
3
6
CONTINUOUS
0
LAYER
2
HOLES
70
0
62
1
6
CONTINUOUS
0
LAYER
2
DIM
70
0
62
2
6
CONTINUOUS
0
LAYER
2
TITLE
70
0
62
5
6
CONTINUOUS
0
LAYER
2
HATCH
70
0
62
8
6
CONTINUOUS
0
ENDTAB
0
ENDSEC
0
SECTION
2
ENTITIES

0
LWPOLYLINE
8
OUTLINE
90
16
70
1
10
300
20
700
10
500
20
760
10
900
20
760
10
1170
20
640
10
1320
20
480
10
1320
20
360
10
1180
20
220
10
900
20
150
10
540
20
150
10
360
20
220
10
230
20
360
10
230
20
500
10
260
20
620
10
300
20
700

0
CIRCLE
8
HOLES
10
360
20
430
40
45
0
CIRCLE
8
HOLES
10
900
20
220
40
40
0
CIRCLE
8
HOLES
10
1180
20
460
40
35
0
CIRCLE
8
HOLES
10
540
20
220
40
30

0
LINE
8
CENTER
10
360
20
430
11
900
21
220
0
LINE
8
CENTER
10
900
20
220
11
1180
21
460
0
LINE
8
CENTER
10
540
20
220
11
1180
21
460

0
ARC
8
OUTLINE
10
900
20
220
40
140
50
205
51
320
0
ARC
8
OUTLINE
10
360
20
430
40
120
50
290
51
50

0
TEXT
8
TITLE
10
100
20
950
40
20
1
车辆底盘部件图：下摆臂（示意加工图）
0
TEXT
8
TITLE
10
100
20
915
40
12
1
图幅：A0（1189x841mm）  比例：1:2  单位：mm  材料：Q355B
0
TEXT
8
TITLE
10
100
20
895
40
12
1
热处理：正火；焊后去应力  表面：喷丸+电泳

0
LINE
8
TITLE
10
50
20
80
11
1630
21
80
0
LINE
8
TITLE
10
50
20
80
11
50
21
1030
0
LINE
8
TITLE
10
1630
20
80
11
1630
21
1030
0
LINE
8
TITLE
10
50
20
1030
11
1630
21
1030

0
LINE
8
TITLE
10
1200
20
80
11
1200
21
300
0
LINE
8
TITLE
10
1200
20
300
11
1630
21
300
0
LINE
8
TITLE
10
1400
20
80
11
1400
21
300
0
LINE
8
TITLE
10
1510
20
80
11
1510
21
300
0
LINE
8
TITLE
10
1200
20
150
11
1630
21
150

0
TEXT
8
TITLE
10
1210
20
270
40
10
1
图号
0
TEXT
8
TITLE
10
1410
20
270
40
10
1
版本
0
TEXT
8
TITLE
10
1520
20
270
40
10
1
日期
0
TEXT
8
TITLE
10
1210
20
210
40
10
1
LCA-A0-001
0
TEXT
8
TITLE
10
1410
20
210
40
10
1
A
0
TEXT
8
TITLE
10
1520
20
210
40
10
1
2026-05-14
0
TEXT
8
TITLE
10
1210
20
120
40
10
1
设计：AI Assistant
0
TEXT
8
TITLE
10
1410
20
120
40
10
1
审核：---
0
TEXT
8
TITLE
10
1520
20
120
40
10
1
批准：---

0
TEXT
8
DIM
10
1380
20
650
40
12
1
主要尺寸：孔距(360,430)-(900,220)=584.4
0
TEXT
8
DIM
10
1380
20
625
40
12
1
孔距(900,220)-(1180,460)=368.8
0
TEXT
8
DIM
10
1380
20
600
40
12
1
安装孔直径：90 / 80 / 70 / 60
0
TEXT
8
DIM
10
1380
20
575
40
12
1
外形最大包络：1090 x 610

0
LINE
8
DIM
10
360
20
430
11
360
21
810
0
LINE
8
DIM
10
900
20
220
11
900
21
810
0
LINE
8
DIM
10
360
20
790
11
900
21
790
0
TEXT
8
DIM
10
610
20
800
40
10
1
540

0
LINE
8
DIM
10
900
20
220
11
1180
21
220
0
LINE
8
DIM
10
1180
20
220
11
1180
21
460
0
TEXT
8
DIM
10
1190
20
330
40
10
1
280
0
TEXT
8
DIM
10
1030
20
210
40
10
1
280

0
ENDSEC
0
